# xmcd
#
# Track frame offsets:
# 150
# 17751
# 38968
# 52703
# 73638
# 92431
# 118813
# 155954
# 179607
# 210433
# 230626
#
# Disc length: 3601 seconds
#
# Revision: 2
# Processed by: cddbd v1.5.1PL2 Copyright (c) Steve Scherf et al.
# Submitted via: freedbtool 1.11
#
DISCID=930e0f0b
DTITLE=Stevie Ray Vaughan and Double Trouble - Peace in the Valley
DYEAR=1900
DGENRE=Blues
TTITLE0=Tightrope
TTITLE1=The Things I Used To Do
TTITLE2=Let Me Love You Baby
TTITLE3=Leave My Little Girl Alone
TTITLE4=Look At Little Sister
TTITLE5=Wall Of Denial
TTITLE6=Riviera Paradise
TTITLE7=Superstition
TTITLE8=Couldn't Stand The Weather - Goin' Down (cut)
TTITLE9=Crossfire
TTITLE10=Voodoo Child (Slight Return)
EXTD=
EXTT0=
EXTT1=
EXTT2=
EXTT3=
EXTT4=
EXTT5=
EXTT6=
EXTT7=
EXTT8=
EXTT9=
EXTT10=
PLAYORDER=
